<svg width="22" height="20" viewBox="0 0 22 20" fill="none" xmlns="http://www.w3.org/2000/svg">
<path d="M19.2499 3.12455H17.3498L15.9741 0.374451H6.02455L4.65015 3.1259L2.75275 3.12928C1.24009 3.13198 0.00869271 4.36468 0.00738656 5.87802L0 16.8743C0 18.391 1.23337 19.6251 2.7501 19.6251H19.2499C20.7667 19.6251 22 18.3917 22 16.875V5.8746C22 4.35792 20.7666 3.12455 19.2499 3.12455ZM10.9997 16.1874C7.9669 16.1874 5.49947 13.72 5.49947 10.6873C5.49947 7.65449 7.9669 5.18706 10.9997 5.18706C14.0324 5.18706 16.4999 7.65449 16.4999 10.6873C16.4999 13.72 14.0324 16.1874 10.9997 16.1874Z" fill="#AEA7AF"/>
</svg>
