<svg width="163" height="39" viewBox="0 0 163 39" fill="none" xmlns="http://www.w3.org/2000/svg">
<path d="M60.0624 37.3616V26.5333L63.3772 22.5555L73.8864 37.3616H82.7504L68.73 17.6447L81.8419 1.93011H73.5917L60.2834 18.0867H60.0624V1.93011H52.6471V37.3616H60.0624Z" fill="#B40DFF"/>
<path d="M93.1613 1.93011H85.746V24.839C85.746 32.6472 91.5162 37.9509 100.601 37.9509C109.662 37.9509 115.432 32.6472 115.432 24.839V1.93011H108.016V24.1024C108.016 28.6449 105.34 31.616 100.601 31.616C95.8377 31.616 93.1613 28.6449 93.1613 24.1024V1.93011Z" fill="#B40DFF"/>
<path d="M143.816 37.3616H151.698L139.372 1.93011H130.655L118.354 37.3616H125.965L128.666 28.7677H141.115L143.816 37.3616ZM134.805 8.70703H134.977L139.519 23.2185H130.262L134.805 8.70703Z" fill="#B40DFF"/>
<path d="M162.747 37.3616V1.93011H155.332V37.3616H162.747Z" fill="#B40DFF"/>
<path fill-rule="evenodd" clip-rule="evenodd" d="M6.54857 13.0817V22.6301C6.54857 30.4897 12.9896 36.8836 20.9066 36.8836H25.2066C32.652 36.8836 38.7095 30.8704 38.7095 23.4791V13.0817H6.54857ZM40.2294 13.6372V23.4791C40.2294 31.7025 33.4902 38.3925 25.2066 38.3925H20.9066C12.1516 38.3925 5.02869 31.3215 5.02869 22.6301V11.5729H37.9341L40.2294 13.6372Z" fill="#B40DFF"/>
<path fill-rule="evenodd" clip-rule="evenodd" d="M14.2478 26.2399C14.2478 27.3971 13.3098 28.3352 12.1525 28.3352C10.9953 28.3352 10.0573 27.3971 10.0573 26.2399C10.0573 25.0826 10.9953 24.1446 12.1525 24.1446C13.3098 24.1446 14.2478 25.0826 14.2478 26.2399Z" fill="#B40DFF"/>
<path fill-rule="evenodd" clip-rule="evenodd" d="M35.2007 26.2399C35.2007 27.3971 34.2627 28.3352 33.1054 28.3352C31.9482 28.3352 31.0101 27.3971 31.0101 26.2399C31.0101 25.0826 31.9482 24.1446 33.1054 24.1446C34.2627 24.1446 35.2007 25.0826 35.2007 26.2399Z" fill="#B40DFF"/>
<path fill-rule="evenodd" clip-rule="evenodd" d="M22.9046 31.6876C19.9751 31.6876 17.6005 29.0611 17.6005 25.8208H27.6578V26.4302C27.6578 29.3338 25.5298 31.6876 22.9046 31.6876Z" fill="#B40DFF"/>
<path fill-rule="evenodd" clip-rule="evenodd" d="M5.27413 18.1218C3.46769 18.2526 2.0975 19.9295 2.21989 21.8601C2.34204 23.791 3.91131 25.2551 5.71775 25.1246M5.86678 27.4835C2.84351 27.702 0.21741 25.2511 0.0126804 22.02C-0.191804 18.7889 2.10127 15.9823 5.12479 15.7635" fill="#B40DFF"/>
<path fill-rule="evenodd" clip-rule="evenodd" d="M39.4842 25.1317C41.3393 25.2109 42.9106 23.7035 42.9867 21.771C43.0626 19.8391 41.615 18.203 39.7597 18.1237M39.8525 15.7635C42.9578 15.8955 45.3805 18.6343 45.2532 21.868C45.1262 25.1016 42.4965 27.6246 39.3912 27.4921" fill="#B40DFF"/>
<path fill-rule="evenodd" clip-rule="evenodd" d="M10.8706 18.7574C11.2162 17.4176 12.3225 16.3917 13.6524 16.1924C13.6705 16.1896 13.6886 16.1869 13.7065 16.1844C14.4357 16.0869 14.4255 14.9828 13.6921 14.933C13.4703 14.9181 13.243 14.9247 13.0116 14.9553C11.5239 15.1535 10.3158 16.376 10.0959 17.9066C10.0553 18.1875 10.0475 18.4628 10.0686 18.7291C10.1063 19.2049 10.7468 19.2586 10.8607 18.7963L10.8706 18.7574Z" fill="#B40DFF"/>
<path fill-rule="evenodd" clip-rule="evenodd" d="M34.3871 19.5955C34.0414 18.256 32.9356 17.2301 31.6057 17.0308C31.5876 17.0277 31.5696 17.0253 31.5515 17.0228C30.8224 16.925 30.8323 15.8212 31.5659 15.7711C31.7875 15.7562 32.0151 15.7628 32.2463 15.7937C33.7339 15.9919 34.9418 17.2141 35.1621 18.745C35.2024 19.0258 35.2105 19.3009 35.1893 19.5674C35.1513 20.0429 34.5113 20.0966 34.3971 19.6346C34.3937 19.6217 34.3905 19.6085 34.3871 19.5955Z" fill="#B40DFF"/>
<path fill-rule="evenodd" clip-rule="evenodd" d="M25.8176 22.2005C26.5382 20.3383 28.4161 19.2131 30.3059 19.5049C31.5371 19.6954 32.5404 20.4081 33.175 21.3809C33.2898 21.5566 33.5514 21.4482 33.5222 21.2374C33.2658 19.3853 31.9024 17.8048 29.9864 17.4911C28.058 17.1752 26.1363 18.344 25.432 20.2604C25.2023 20.8848 25.1157 21.5217 25.1509 22.1364C25.1729 22.5184 25.6686 22.5948 25.8027 22.2391C25.8074 22.2263 25.8124 22.2135 25.8176 22.2005Z" fill="#B40DFF"/>
<path fill-rule="evenodd" clip-rule="evenodd" d="M19.503 22.192C18.8753 20.38 17.1968 19.1907 15.4912 19.3432C14.3799 19.4424 13.4679 20.0522 12.8848 20.9321C12.7796 21.091 12.5452 20.9712 12.5741 20.7732C12.8266 19.0353 14.073 17.6274 15.8025 17.4558C17.5432 17.2834 19.2609 18.5172 19.8731 20.3793C20.0725 20.9858 20.1433 21.5952 20.1044 22.1754C20.08 22.5355 19.6327 22.5755 19.5161 22.2296C19.5118 22.2174 19.5076 22.2047 19.503 22.192Z" fill="#B40DFF"/>
<path fill-rule="evenodd" clip-rule="evenodd" d="M6.15517 13.7958C6.15517 13.7958 17.0436 11.4637 40.2294 12.824C40.2294 12.824 31.0951 3.37425 19.4564 0.677594C19.4564 0.677594 9.39125 0.604733 5.02869 3.51971V14.0872L6.15517 13.7958Z" fill="#B40DFF"/>
<mask id="mask0" mask-type="alpha" maskUnits="userSpaceOnUse" x="25" y="0" width="17" height="12">
<path fill-rule="evenodd" clip-rule="evenodd" d="M25.1855 0H41.8318V11.3857H25.1855V0Z" fill="white"/>
</mask>
<g mask="url(#mask0)">
<path fill-rule="evenodd" clip-rule="evenodd" d="M25.6542 0.666151C27.8681 0.123539 31.7651 -0.44593 36.4456 0.529781C38.6556 0.990258 40.3763 2.7795 40.8081 5.0519L41.8148 10.3471C41.9728 11.1781 40.9947 11.7286 40.4014 11.1401C37.8094 8.56962 32.7353 4.30981 25.609 1.87575C25.0223 1.67524 25.0526 0.813212 25.6542 0.666151Z" fill="#B40DFF"/>
</g>
</svg>
