<svg width="16" height="29" viewBox="0 0 16 29" fill="none" xmlns="http://www.w3.org/2000/svg">
<path fillRule="evenodd" clipRule="evenodd" d="M8 17.3636C4.36364 17.3636 1.25818 19.6255 0 22.8182C1.25818 26.0109 4.36364 28.2727 8 28.2727C11.6364 28.2727 14.7418 26.0109 16 22.8182C14.7418 19.6255 11.6364 17.3636 8 17.3636ZM8 26.4546C5.99273 26.4546 4.36364 24.8255 4.36364 22.8182C4.36364 20.8109 5.99273 19.1818 8 19.1818C10.0073 19.1818 11.6364 20.8109 11.6364 22.8182C11.6364 24.8255 10.0073 26.4546 8 26.4546ZM5.81818 22.8182C5.81818 21.6109 6.79273 20.6364 8 20.6364C9.20727 20.6364 10.1818 21.6109 10.1818 22.8182C10.1818 24.0255 9.20727 25 8 25C6.79273 25 5.81818 24.0255 5.81818 22.8182Z" fill="#660ADE"/>
<path fillRule="evenodd" clipRule="evenodd" d="M8 0.363647C4.36364 0.363647 1.25818 2.62547 0 5.81819C1.25818 9.01092 4.36364 11.2727 8 11.2727C11.6364 11.2727 14.7418 9.01092 16 5.81819C14.7418 2.62547 11.6364 0.363647 8 0.363647ZM8 9.45456C5.99273 9.45456 4.36364 7.82547 4.36364 5.81819C4.36364 3.81092 5.99273 2.18183 8 2.18183C10.0073 2.18183 11.6364 3.81092 11.6364 5.81819C11.6364 7.82547 10.0073 9.45456 8 9.45456ZM5.81818 5.81819C5.81818 4.61092 6.79273 3.63637 8 3.63637C9.20727 3.63637 10.1818 4.61092 10.1818 5.81819C10.1818 7.02547 9.20727 8.00001 8 8.00001C6.79273 8.00001 5.81818 7.02547 5.81818 5.81819Z" fill="#AAAAAA"/>
</svg>
