<svg width="230" height="218" viewBox="0 0 230 218" fill="none" xmlns="http://www.w3.org/2000/svg">
<g clip-path="url(#clip0)">
<path d="M205.762 29.866H45.7858V136.686H205.762V29.866Z" fill="#FAFAFA"/>
<path d="M205.762 29.866H45.7858V40.5349H205.762V29.866Z" fill="#EBEBEB"/>
<path d="M52.7175 35.2026C52.7395 35.4649 52.6817 35.7276 52.5515 35.9566C52.4214 36.1855 52.225 36.37 51.988 36.4859C51.751 36.6018 51.4845 36.6438 51.2232 36.6063C50.962 36.5688 50.7181 36.4537 50.5235 36.2758C50.329 36.098 50.1927 35.8658 50.1326 35.6096C50.0724 35.3533 50.0912 35.085 50.1865 34.8396C50.2818 34.5942 50.4491 34.3831 50.6666 34.234C50.884 34.0848 51.1416 34.0046 51.4055 34.0036C51.5709 33.9954 51.7362 34.0201 51.892 34.0761C52.0477 34.1321 52.1908 34.2183 52.3128 34.3299C52.4349 34.4414 52.5335 34.576 52.603 34.7258C52.6724 34.8756 52.7114 35.0377 52.7175 35.2026Z" fill="#FAFAFA"/>
<path d="M56.8853 35.2026C56.9073 35.4649 56.8495 35.7276 56.7193 35.9566C56.5892 36.1855 56.3928 36.37 56.1558 36.4859C55.9188 36.6018 55.6523 36.6438 55.391 36.6063C55.1298 36.5688 54.8859 36.4537 54.6913 36.2758C54.4967 36.098 54.3605 35.8658 54.3004 35.6096C54.2402 35.3533 54.259 35.085 54.3543 34.8396C54.4496 34.5942 54.6169 34.3831 54.8343 34.234C55.0518 34.0848 55.3094 34.0046 55.5733 34.0036C55.7387 33.9954 55.904 34.0201 56.0598 34.0761C56.2155 34.1321 56.3586 34.2183 56.4806 34.3299C56.6026 34.4414 56.7013 34.576 56.7707 34.7258C56.8402 34.8756 56.8792 35.0377 56.8853 35.2026Z" fill="#FAFAFA"/>
<path d="M61.0619 35.2026C61.0839 35.4649 61.0261 35.7276 60.8959 35.9566C60.7657 36.1855 60.5694 36.37 60.3324 36.4859C60.0954 36.6018 59.8289 36.6438 59.5676 36.6063C59.3063 36.5688 59.0625 36.4537 58.8679 36.2758C58.6733 36.098 58.5371 35.8658 58.4769 35.6096C58.4168 35.3533 58.4356 35.085 58.5309 34.8396C58.6261 34.5942 58.7934 34.3831 59.0109 34.234C59.2284 34.0848 59.4859 34.0046 59.7499 34.0036C59.9152 33.9954 60.0806 34.0201 60.2363 34.0761C60.3921 34.1321 60.5351 34.2183 60.6572 34.3299C60.7792 34.4414 60.8778 34.576 60.9473 34.7258C61.0168 34.8756 61.0557 35.0377 61.0619 35.2026Z" fill="#FAFAFA"/>
<path d="M191.816 150.616C183.454 144.796 181.56 133.987 181.888 124.273C181.945 122.651 181.766 120.942 182.54 119.516C183.314 118.091 185.12 117.123 186.576 117.807C187.784 118.374 188.326 119.774 188.986 120.933C189.889 122.478 191.211 123.737 192.8 124.565C193.836 125.101 195.118 125.437 196.141 124.866C197.545 124.094 197.711 122.163 197.698 120.55C197.68 117.541 197.661 114.534 197.641 111.529C197.641 109.916 197.641 108.272 198.131 106.733C198.621 105.194 199.745 103.781 201.284 103.354C202.823 102.927 204.726 103.79 205.054 105.386C205.114 106.054 205.129 106.725 205.098 107.396C205.146 108.063 205.456 108.804 206.095 108.991C206.733 109.179 207.407 108.721 207.87 108.25C209.541 106.624 210.674 104.522 211.732 102.438C212.79 100.354 213.818 98.2134 215.336 96.4388C216.853 94.6643 218.948 93.256 221.261 93.1252C223.575 92.9944 226.05 94.4332 226.636 96.6874C227.222 98.9415 225.893 101.27 224.45 103.11C222.299 105.839 219.766 108.246 216.927 110.256C216.42 110.613 215.865 111.006 215.672 111.603C215.318 112.68 216.341 113.748 217.422 114.101C218.629 114.498 219.936 114.376 221.2 114.537C222.464 114.699 223.824 115.239 224.305 116.429C224.966 118.078 223.584 119.804 222.224 120.938C219.497 123.204 216.399 124.986 213.066 126.205C211.876 126.641 210.625 127.02 209.663 127.853C208.701 128.685 208.128 130.137 208.706 131.275C209.283 132.413 210.774 132.775 212.021 132.544C213.267 132.313 214.382 131.637 215.572 131.192C217.793 130.355 220.667 130.508 222.092 132.422C223.028 133.682 223.107 135.435 222.635 136.939C222.092 138.417 221.258 139.772 220.181 140.924C216.621 145.092 212.056 148.449 206.899 150.228C201.743 152.007 196.963 152.495 191.838 150.625" fill="#650ADD"/>
<path d="M191.689 157.832C192.134 153.327 193.012 148.875 194.313 144.538C195.931 139.246 197.852 134.05 200.068 128.978L201.787 124.975C202.356 123.667 202.915 122.359 203.536 121.121C204.749 118.745 206.092 116.438 207.56 114.21C208.946 112.074 210.337 110.094 211.653 108.254C212.97 106.415 214.238 104.732 215.458 103.24C217.38 100.873 219.487 98.6612 221.76 96.6263C222.56 95.9113 223.199 95.3706 223.636 95.0131L224.135 94.6076L224.31 94.4768C224.263 94.5348 224.21 94.5874 224.152 94.6338L223.671 95.0698C223.234 95.4404 222.626 95.9941 221.839 96.7222C219.609 98.7789 217.536 100.998 215.637 103.363C214.435 104.858 213.184 106.554 211.872 108.394C210.56 110.234 209.182 112.218 207.805 114.354C206.354 116.578 205.027 118.879 203.829 121.247C203.208 122.481 202.653 123.767 202.08 125.084L200.361 129.087C198.151 134.149 196.226 139.331 194.597 144.608C193.285 148.922 192.38 153.35 191.895 157.832" fill="#263238"/>
<path d="M203.646 121.103C203.571 120.879 203.518 120.649 203.488 120.414C203.405 119.978 203.305 119.32 203.191 118.518C202.959 116.909 202.719 114.681 202.465 112.222C202.211 109.763 201.94 107.544 201.686 105.948C201.564 105.15 201.455 104.5 201.376 104.056C201.321 103.827 201.29 103.593 201.284 103.358C201.378 103.575 201.447 103.802 201.49 104.034C201.603 104.47 201.743 105.115 201.892 105.913C202.198 107.505 202.504 109.728 202.767 112.192C203.029 114.655 203.235 116.813 203.401 118.487C203.484 119.246 203.554 119.887 203.606 120.397C203.647 120.63 203.66 120.867 203.646 121.103Z" fill="#263238"/>
<path d="M224.45 117.227C224.176 117.282 223.898 117.314 223.619 117.323C223.085 117.371 222.307 117.437 221.362 117.546C219.455 117.751 216.836 118.125 213.958 118.666C211.08 119.207 208.504 119.817 206.65 120.305C205.723 120.545 204.975 120.741 204.463 120.903C204.199 120.994 203.927 121.061 203.65 121.103C203.899 120.974 204.159 120.869 204.428 120.789C204.936 120.615 205.675 120.353 206.615 120.101C208.456 119.556 211.041 118.919 213.923 118.357C216.382 117.887 218.863 117.542 221.358 117.323C222.315 117.24 223.107 117.206 223.632 117.197C223.905 117.181 224.179 117.191 224.45 117.227Z" fill="#263238"/>
<path d="M194.589 144.146C194.589 144.146 194.527 144.063 194.444 143.893C194.361 143.723 194.23 143.457 194.09 143.143C193.784 142.489 193.364 141.534 192.861 140.344C191.86 137.972 190.578 134.646 189.209 130.957C187.84 127.268 186.585 123.933 185.641 121.544L184.508 118.71L184.202 117.938C184.161 117.849 184.132 117.755 184.114 117.659C184.172 117.737 184.219 117.822 184.254 117.912C184.351 118.117 184.469 118.348 184.613 118.662C184.919 119.316 185.335 120.271 185.837 121.461C186.839 123.837 188.125 127.159 189.489 130.852C190.854 134.545 192.113 137.872 193.058 140.266L194.195 143.095L194.497 143.867C194.54 143.955 194.571 144.049 194.589 144.146Z" fill="#263238"/>
<path d="M222.228 135.265C222.141 135.314 222.049 135.352 221.952 135.378L221.152 135.644L218.191 136.603C215.69 137.41 212.252 138.565 208.456 139.847C204.66 141.129 201.205 142.254 198.686 143.008C197.427 143.387 196.408 143.684 195.695 143.88L194.877 144.094C194.784 144.125 194.687 144.144 194.588 144.15C194.674 144.101 194.765 144.063 194.86 144.037L195.664 143.771L198.625 142.812C201.122 142.005 204.56 140.85 208.36 139.568C212.16 138.286 215.611 137.161 218.13 136.403C219.385 136.023 220.409 135.727 221.117 135.531L221.935 135.317C222.03 135.286 222.128 135.269 222.228 135.265Z" fill="#263238"/>
<path d="M8.49442 80.381C8.49442 80.4769 7.79905 80.551 6.94188 80.551C6.08471 80.551 5.38934 80.4769 5.38934 80.381C5.38934 80.285 6.08471 80.2109 6.94188 80.2109C7.79905 80.2109 8.49442 80.2894 8.49442 80.381Z" fill="#263238"/>
<path d="M10.1388 76.1736C10.235 76.1736 10.3137 76.8755 10.3137 77.7432C10.3137 78.6108 10.235 79.3128 10.1388 79.3128C10.0426 79.3128 9.96826 78.6108 9.96826 77.7432C9.96826 76.8755 10.047 76.1736 10.1388 76.1736Z" fill="#263238"/>
<path d="M11.8969 80.2807C11.8969 80.1848 12.5878 80.1106 13.445 80.1106C14.3022 80.1106 14.9976 80.1848 14.9976 80.2807C14.9976 80.3766 14.3022 80.4507 13.445 80.4507C12.5878 80.4507 11.8969 80.3766 11.8969 80.2807Z" fill="#263238"/>
<path d="M10.2481 84.4881C10.1519 84.4881 10.0776 83.7861 10.0776 82.9185C10.0776 82.0508 10.1519 81.3489 10.2481 81.3489C10.3444 81.3489 10.4187 82.0508 10.4187 82.9185C10.4187 83.7861 10.3444 84.4881 10.2481 84.4881Z" fill="#263238"/>
<path d="M12.754 82.683C12.684 82.7441 12.3779 82.4999 12.0718 82.1337C11.7656 81.7674 11.5776 81.4274 11.6344 81.3663C11.6913 81.3053 12.0149 81.5538 12.3167 81.9157C12.6184 82.2776 12.8284 82.622 12.754 82.683Z" fill="#263238"/>
<path d="M12.6097 77.9132C12.6796 77.9786 12.4741 78.2925 12.1723 78.6108C11.8706 78.9291 11.547 79.1296 11.477 79.0468C11.407 78.964 11.6126 78.6675 11.9143 78.3492C12.2161 78.0309 12.5441 77.8478 12.6097 77.9132Z" fill="#263238"/>
<path d="M9.05419 79.1296C8.99296 79.1994 8.69996 79.0555 8.3982 78.807C8.09644 78.5585 7.90402 78.2969 7.96087 78.2228C8.01772 78.1486 8.3151 78.2925 8.61249 78.5454C8.90987 78.7983 9.11542 79.0555 9.05419 79.1296Z" fill="#263238"/>
<path d="M8.91422 81.2312C8.98419 81.2966 8.80926 81.6018 8.52062 81.9157C8.23199 82.2296 7.94334 82.4302 7.87337 82.3517C7.8034 82.2732 7.98271 81.9811 8.26697 81.6672C8.55124 81.3532 8.84425 81.1658 8.91422 81.2312Z" fill="#263238"/>
<path d="M12.601 119.028L12.7016 119.272C12.7892 119.482 12.9179 119.672 13.0801 119.831C13.2423 119.991 13.4348 120.116 13.6462 120.201L13.9086 120.31L13.6549 120.41C13.4421 120.498 13.2487 120.626 13.0858 120.789C12.923 120.951 12.7939 121.144 12.7059 121.356L12.636 121.535L12.5266 121.313C12.3354 120.907 11.9911 120.594 11.5689 120.441L11.3371 120.358L11.6389 120.21C12.0141 120.028 12.3119 119.719 12.4785 119.338L12.601 119.028Z" fill="#263238"/>
<path d="M186.887 50.5368H23.8054C20.2863 50.5368 17.4335 53.3809 17.4335 56.8893V160.099C17.4335 163.608 20.2863 166.452 23.8054 166.452H186.887C190.406 166.452 193.259 163.608 193.259 160.099V56.8893C193.259 53.3809 190.406 50.5368 186.887 50.5368Z" fill="#263238"/>
<path d="M10.0907 157.88H200.571V160.265C200.571 162.323 199.751 164.297 198.291 165.753C196.831 167.208 194.851 168.026 192.787 168.026H17.8533C15.7887 168.026 13.8087 167.208 12.3488 165.753C10.8889 164.297 10.0688 162.323 10.0688 160.265V157.88H10.0907Z" fill="#263238"/>
<path d="M188.046 55.1453H22.1523V153.036H188.046V55.1453Z" fill="#455A64"/>
<path d="M88.0104 157.88L90.3763 161.63H123.636L125.831 157.88H88.0104Z" fill="#455A64"/>
<path d="M183.537 58.4589H26.998C26.2081 58.4589 25.5679 59.0972 25.5679 59.8846V151.296C25.5679 152.084 26.2081 152.722 26.998 152.722H183.537C184.327 152.722 184.967 152.084 184.967 151.296V59.8846C184.967 59.0972 184.327 58.4589 183.537 58.4589Z" fill="#EBEBEB"/>
<path d="M184.967 65.3651H25.5679V152.722H184.967V65.3651Z" fill="#FAFAFA"/>
<path d="M38.6441 62.0995C38.6441 62.3513 38.5692 62.5974 38.4289 62.8068C38.2886 63.0162 38.0891 63.1793 37.8558 63.2757C37.6225 63.3721 37.3657 63.3973 37.118 63.3481C36.8703 63.299 36.6427 63.1778 36.4641 62.9997C36.2855 62.8217 36.1639 62.5948 36.1146 62.3479C36.0654 62.1009 36.0906 61.8449 36.1873 61.6123C36.284 61.3796 36.4476 61.1808 36.6576 61.0409C36.8676 60.901 37.1145 60.8264 37.3671 60.8264C37.7058 60.8264 38.0306 60.9605 38.2701 61.1992C38.5096 61.438 38.6441 61.7618 38.6441 62.0995Z" fill="#263238"/>
<path d="M30.9252 62.0995C30.9244 62.3502 30.849 62.5951 30.7086 62.8032C30.5683 63.0112 30.3692 63.1732 30.1366 63.2685C29.904 63.3639 29.6482 63.3884 29.4016 63.339C29.1551 63.2895 28.9287 63.1683 28.7512 62.9907C28.5736 62.8131 28.4528 62.587 28.4041 62.341C28.3553 62.095 28.3808 61.8402 28.4772 61.6086C28.5737 61.377 28.7368 61.1791 28.946 61.0399C29.1552 60.9007 29.4011 60.8264 29.6526 60.8264C29.8201 60.8264 29.9859 60.8593 30.1406 60.9234C30.2953 60.9874 30.4358 61.0812 30.554 61.1995C30.6723 61.3178 30.7659 61.4582 30.8296 61.6126C30.8933 61.767 30.9258 61.9325 30.9252 62.0995Z" fill="#263238"/>
<path d="M34.6294 62.0995C34.6286 62.3502 34.5532 62.5951 34.4128 62.8032C34.2725 63.0112 34.0734 63.1732 33.8408 63.2685C33.6082 63.3639 33.3524 63.3884 33.1059 63.339C32.8593 63.2895 32.6329 63.1683 32.4554 62.9907C32.2778 62.8131 32.1571 62.587 32.1083 62.341C32.0596 62.095 32.085 61.8402 32.1815 61.6086C32.2779 61.377 32.441 61.1791 32.6502 61.0399C32.8594 60.9007 33.1053 60.8264 33.3568 60.8264C33.5243 60.8264 33.6901 60.8593 33.8448 60.9234C33.9995 60.9874 34.14 61.0812 34.2582 61.1995C34.3765 61.3178 34.4701 61.4582 34.5338 61.6126C34.5975 61.767 34.63 61.9325 34.6294 62.0995Z" fill="#263238"/>
<path d="M191.746 157.88C191.746 157.945 152.723 157.993 104.594 157.993C56.4655 157.993 17.4335 157.945 17.4335 157.88C17.4335 157.815 56.448 157.767 104.594 157.767C152.74 157.767 191.746 157.832 191.746 157.88Z" fill="#455A64"/>
<path d="M72.9879 109.371H36.6149V111.795H72.9879V109.371Z" fill="#E0E0E0"/>
<path d="M119.971 75.6896H83.5977V78.1138H119.971V75.6896Z" fill="#E0E0E0"/>
<path d="M174.091 84.7235C174.091 84.7846 153.833 84.8369 128.857 84.8369C103.881 84.8369 83.6151 84.7846 83.6151 84.7235C83.6151 84.6625 103.868 84.6102 128.857 84.6102C153.846 84.6102 174.091 84.6625 174.091 84.7235Z" fill="#E0E0E0"/>
<path d="M174.091 90.0209C174.091 90.082 153.833 90.1343 128.857 90.1343C103.881 90.1343 83.6151 90.082 83.6151 90.0209C83.6151 89.9599 103.868 89.9076 128.857 89.9076C153.846 89.9076 174.091 89.9599 174.091 90.0209Z" fill="#E0E0E0"/>
<path d="M174.091 95.3183C174.091 95.3794 153.833 95.4317 128.857 95.4317C103.881 95.4317 83.6151 95.3794 83.6151 95.3183C83.6151 95.2573 103.868 95.205 128.857 95.205C153.846 95.205 174.091 95.2529 174.091 95.3183Z" fill="#E0E0E0"/>
<path d="M174.091 100.616C174.091 100.677 153.833 100.729 128.857 100.729C103.881 100.729 83.6151 100.677 83.6151 100.616C83.6151 100.555 103.868 100.502 128.857 100.502C153.846 100.502 174.091 100.55 174.091 100.616Z" fill="#E0E0E0"/>
<path d="M174.091 105.913C174.091 105.974 153.833 106.026 128.857 106.026C103.881 106.026 83.6151 105.974 83.6151 105.913C83.6151 105.852 103.868 105.8 128.857 105.8C153.846 105.8 174.091 105.848 174.091 105.913Z" fill="#E0E0E0"/>
<path d="M118.917 111.211C118.917 111.272 111.01 111.324 101.257 111.324C91.5046 111.324 83.5977 111.272 83.5977 111.211C83.5977 111.149 91.5046 111.097 101.257 111.097C111.01 111.097 118.917 111.145 118.917 111.211Z" fill="#E0E0E0"/>
<path d="M173.413 121.491C173.413 121.552 160.096 121.605 143.674 121.605C127.252 121.605 113.935 121.552 113.935 121.491C113.935 121.43 127.248 121.378 143.674 121.378C160.1 121.378 173.413 121.426 173.413 121.491Z" fill="#E0E0E0"/>
<path d="M173.413 127.111C173.413 127.177 160.096 127.225 143.674 127.225C127.252 127.225 113.935 127.177 113.935 127.111C113.935 127.046 127.248 126.998 143.674 126.998C160.1 126.998 173.413 127.05 173.413 127.111Z" fill="#E0E0E0"/>
<path d="M173.413 132.736C173.413 132.797 160.096 132.849 143.674 132.849C127.252 132.849 113.935 132.797 113.935 132.736C113.935 132.675 127.248 132.622 143.674 132.622C160.1 132.622 173.413 132.675 173.413 132.736Z" fill="#E0E0E0"/>
<path d="M173.413 138.36C173.413 138.421 160.096 138.474 143.674 138.474C127.252 138.474 113.935 138.421 113.935 138.36C113.935 138.299 127.248 138.247 143.674 138.247C160.1 138.247 173.413 138.295 173.413 138.36Z" fill="#E0E0E0"/>
<path d="M73.0667 120.951C73.0667 121.016 65.1291 121.064 55.3416 121.064C45.5541 121.064 37.6165 121.016 37.6165 120.951C37.6165 120.885 45.5497 120.837 55.3416 120.837C65.1335 120.837 73.0667 120.89 73.0667 120.951Z" fill="#E0E0E0"/>
<path d="M73.0667 125.367C73.0667 125.428 65.1291 125.481 55.3416 125.481C45.5541 125.481 37.6165 125.428 37.6165 125.367C37.6165 125.306 45.5497 125.254 55.3416 125.254C65.1335 125.254 73.0667 125.306 73.0667 125.367Z" fill="#E0E0E0"/>
<path d="M73.0667 129.784C73.0667 129.845 65.1291 129.897 55.3416 129.897C45.5541 129.897 37.6165 129.845 37.6165 129.784C37.6165 129.723 45.5497 129.671 55.3416 129.671C65.1335 129.671 73.0667 129.719 73.0667 129.784Z" fill="#E0E0E0"/>
<path d="M73.0667 134.201C73.0667 134.262 65.1291 134.314 55.3416 134.314C45.5541 134.314 37.6427 134.262 37.6427 134.201C37.6427 134.14 45.5759 134.087 55.3678 134.087C65.1597 134.087 73.0667 134.135 73.0667 134.201Z" fill="#E0E0E0"/>
<path d="M73.0667 138.613C73.0667 138.679 65.1291 138.731 55.3416 138.731C45.5541 138.731 37.6165 138.679 37.6165 138.613C37.6165 138.548 45.5497 138.5 55.3416 138.5C65.1335 138.5 73.0667 138.552 73.0667 138.613Z" fill="#E0E0E0"/>
<path d="M109.383 118.806H83.5757V143.697H109.383V118.806Z" fill="#F5F5F5"/>
<path d="M85.5787 141.569L92.716 128.76L98.5544 136.948L102.106 132.601L107.384 141.569H85.5787Z" fill="#EBEBEB"/>
<path d="M101.056 126.27C101.056 126.636 100.947 126.995 100.743 127.299C100.539 127.604 100.248 127.842 99.9086 127.982C99.569 128.122 99.1953 128.159 98.8347 128.087C98.4742 128.016 98.143 127.839 97.8831 127.58C97.6231 127.321 97.4461 126.991 97.3744 126.631C97.3027 126.272 97.3395 125.899 97.4802 125.561C97.6208 125.222 97.8591 124.933 98.1647 124.729C98.4704 124.526 98.8297 124.417 99.1974 124.417C99.4416 124.416 99.6836 124.464 99.9093 124.557C100.135 124.65 100.34 124.786 100.513 124.958C100.686 125.131 100.823 125.335 100.916 125.56C101.009 125.785 101.057 126.026 101.056 126.27Z" fill="#EBEBEB"/>
<path d="M107.384 141.639C107.381 141.604 107.381 141.569 107.384 141.534C107.384 141.46 107.384 141.364 107.384 141.247C107.384 140.981 107.384 140.606 107.384 140.126C107.384 139.136 107.384 137.711 107.358 135.897C107.358 132.261 107.327 127.085 107.306 120.868L107.41 120.973H85.6051C85.5745 120.999 85.8369 120.741 85.7275 120.855V123.667C85.7275 124.6 85.7275 125.524 85.7275 126.44V131.803C85.7275 135.291 85.7275 138.583 85.7275 141.617L85.6226 141.508L101.388 141.565L105.836 141.591H107.012H107.319H107.428H107.332H107.039H105.88L101.454 141.622L85.6226 141.674H85.5132V141.569C85.5132 138.517 85.5132 135.238 85.5132 131.755C85.5132 130.011 85.5132 128.219 85.5132 126.392V120.877C85.3995 120.981 85.6619 120.724 85.6357 120.75H107.441H107.546V120.855C107.546 127.098 107.502 132.3 107.494 135.954C107.494 137.754 107.494 139.176 107.463 140.157C107.463 140.627 107.463 140.994 107.463 141.255C107.463 141.373 107.463 141.465 107.463 141.534C107.44 141.572 107.414 141.607 107.384 141.639Z" fill="#EBEBEB"/>
<path d="M72.3057 71.5476H37.3015V105.307H72.3057V71.5476Z" fill="#F5F5F5"/>
<path d="M40.0174 102.421L49.7 85.0462L57.6201 96.1511L62.4307 90.252L69.5899 102.421H40.0174Z" fill="#E0E0E0"/>
<path d="M60.9919 81.6672C60.9919 82.1639 60.8441 82.6494 60.5673 83.0624C60.2905 83.4754 59.8971 83.7973 59.4368 83.9874C58.9765 84.1774 58.47 84.2272 57.9814 84.1303C57.4928 84.0334 57.0439 83.7942 56.6916 83.443C56.3393 83.0917 56.0994 82.6443 56.0022 82.1571C55.905 81.6699 55.9549 81.165 56.1455 80.7061C56.3362 80.2472 56.6591 79.855 57.0733 79.579C57.4876 79.3031 57.9746 79.1558 58.4728 79.1558C59.1409 79.1558 59.7817 79.4204 60.2541 79.8914C60.7265 80.3623 60.9919 81.0011 60.9919 81.6672Z" fill="#E0E0E0"/>
<path d="M69.5899 102.512C69.5899 102.512 69.5899 102.464 69.5899 102.377C69.5899 102.29 69.5899 102.146 69.5899 101.98C69.5899 101.623 69.5899 101.108 69.5899 100.463C69.5899 99.1246 69.568 97.1888 69.5505 94.7297C69.5505 89.7986 69.5068 82.7746 69.4762 74.3424L69.6205 74.4862H40.048L40.2142 74.3249V78.1486C40.2142 79.413 40.2142 80.6644 40.2142 81.907C40.2142 84.3878 40.2142 86.8163 40.2142 89.1794C40.2142 93.91 40.2142 98.379 40.2142 102.491L40.0699 102.347L61.4511 102.421L67.482 102.46H69.0826H69.5199H69.6642C69.6223 102.467 69.5794 102.467 69.5374 102.46H69.1351H67.565L61.5648 102.499L40.0917 102.573H39.9431V102.425C39.9431 98.3136 39.9431 93.8446 39.9431 89.114C39.9431 86.7509 39.9431 84.318 39.9431 81.8416V74.3467L40.1136 74.1767L69.6861 74.1985H69.8304V74.338C69.7998 82.8095 69.7736 89.8596 69.7561 94.83C69.7561 97.2716 69.7298 99.19 69.7211 100.529C69.7211 101.169 69.7211 101.671 69.7211 102.02C69.7211 102.181 69.7211 102.303 69.7211 102.399C69.6833 102.443 69.6391 102.481 69.5899 102.512Z" fill="#E0E0E0"/>
<path d="M122.844 96.7092L119.345 96.6612L119.476 87.1651C119.475 85.4972 119.144 83.846 118.502 82.3058C117.86 80.7655 116.92 79.3664 115.736 78.1882C114.552 77.0101 113.146 76.076 111.6 75.4393C110.054 74.8026 108.397 74.4758 106.724 74.4775C105.051 74.4792 103.395 74.8095 101.85 75.4493C100.305 76.0892 98.9012 77.0261 97.7195 78.2067C95.3328 80.591 93.9939 83.8228 93.9974 87.1913L93.8662 96.7092L90.3676 96.6612L90.4987 87.1651C90.5022 82.8716 92.2164 78.7553 95.2641 75.7218C98.3118 72.6883 102.443 70.9861 106.75 70.9895C111.057 70.993 115.186 72.7019 118.228 75.7403C121.271 78.7787 122.979 82.8978 122.975 87.1913L122.844 96.7092Z" fill="#263238"/>
<path d="M123.168 92.0832H90.6824C86.2648 92.0832 82.6836 95.6535 82.6836 100.058V131.332C82.6836 135.736 86.2648 139.306 90.6824 139.306H123.168C127.585 139.306 131.166 135.736 131.166 131.332V100.058C131.166 95.6535 127.585 92.0832 123.168 92.0832Z" fill="#650ADD"/>
<g opacity="0.3">
<path opacity="0.3" d="M111.753 113.203C111.756 112.363 111.539 111.536 111.122 110.806C110.706 110.075 110.105 109.466 109.379 109.038C108.654 108.611 107.829 108.38 106.986 108.369C106.143 108.357 105.312 108.566 104.575 108.974C103.838 109.382 103.221 109.974 102.785 110.694C102.349 111.413 102.109 112.233 102.089 113.073C102.07 113.913 102.271 114.744 102.672 115.482C103.074 116.221 103.663 116.842 104.38 117.284L103.142 122.991H111.067C111.067 122.991 110.192 119.403 109.615 117.192C110.271 116.753 110.809 116.159 111.182 115.463C111.555 114.768 111.751 113.992 111.753 113.203Z" fill="black"/>
</g>
<g opacity="0.2">
<path opacity="0.2" d="M85.7843 124.988C85.4694 124.988 85.347 119.473 85.4738 112.684C85.6006 105.896 85.9855 100.393 86.3004 100.402C86.6153 100.411 86.7378 105.917 86.6109 112.706C86.4841 119.495 86.0992 124.992 85.7843 124.988Z" fill="white"/>
</g>
<g opacity="0.2">
<path opacity="0.2" d="M85.8193 130.451C85.5044 130.451 85.2463 129.919 85.2376 129.252C85.2288 128.585 85.4738 128.044 85.7887 128.04C86.1035 128.036 86.366 128.572 86.3747 129.239C86.3834 129.906 86.1342 130.447 85.8193 130.451Z" fill="white"/>
</g>
<g opacity="0.2">
<path opacity="0.2" d="M101.03 123.776C100.78 123.693 101.371 121.182 102.399 117.842L102.53 118.391C102.062 117.929 101.576 117.445 101.069 116.909C100.284 116.017 99.8225 114.889 99.7571 113.704C99.7042 112.753 99.929 111.806 100.404 110.979C100.706 110.433 101.126 109.961 101.633 109.597C101.992 109.349 102.232 109.283 102.272 109.344C102.385 109.48 101.646 110.064 101.126 111.333C100.8 112.126 100.7 112.994 100.839 113.841C100.977 114.687 101.347 115.479 101.909 116.129L103.317 117.611L103.549 117.86L103.444 118.165C102.294 121.483 101.279 123.855 101.03 123.776Z" fill="white"/>
</g>
<g opacity="0.2">
<path opacity="0.2" d="M121.042 95.3619C121.042 95.5189 119.105 95.6497 115.978 95.7282C112.851 95.8066 108.543 95.8372 103.732 95.8023C101.345 95.8023 99.0705 95.75 97.0019 95.7064C94.9333 95.6628 93.0659 95.5363 91.5746 95.7064C90.3911 95.7918 89.2489 96.1759 88.2553 96.8225C87.5599 97.2978 87.2756 97.6945 87.1969 97.6422C87.1182 97.5899 87.3062 97.1146 87.9754 96.4824C88.9614 95.6276 90.1783 95.0816 91.474 94.9128C92.3422 94.7785 93.2194 94.7099 94.098 94.7079L97.0369 94.6774C99.1055 94.6774 101.38 94.6774 103.767 94.6774C108.543 94.7123 112.864 94.8126 115.991 94.939C119.118 95.0654 121.042 95.205 121.042 95.3619Z" fill="white"/>
</g>
</g>
<defs>
<clipPath id="clip0">
<rect width="230" height="218" fill="white"/>
</clipPath>
</defs>
</svg>
